<?xml version="1.0" standalone="no"?>
<!DOCTYPE svg PUBLIC "-//W3C//DTD SVG 1.1//EN" "http://www.w3.org/Graphics/SVG/1.1/DTD/svg11.dtd" >
<svg xmlns="http://www.w3.org/2000/svg" xmlns:xlink="http://www.w3.org/1999/xlink" version="1.1">
<metadata>
Created by FontForge 20170910 at Mon May  6 16:56:07 2002
 By Jimmy Wärting
\251 Dutch Design: Albert-Jan Pool, 1995. Published by FontShop International FontFont release 15
</metadata>
<defs>
<font id="DIN-Regular" horiz-adv-x="522" >
  <font-face 
    font-family="DIN-Regular"
    font-weight="5"
    font-stretch="normal"
    units-per-em="1000"
    panose-1="0 0 0 0 0 0 0 0 0 0"
    ascent="800"
    descent="-200"
    x-height="492"
    cap-height="712"
    bbox="-104 -226 1115 985"
    underline-thickness="51"
    underline-position="-164"
    unicode-range="U+0020-F002"
  />
<missing-glyph horiz-adv-x="774" 
d="M48 0v774h678v-774h-678zM678 48v678h-582v-678h582z" />
    <glyph glyph-name=".notdef" horiz-adv-x="774" 
d="M48 0v774h678v-774h-678zM678 48v678h-582v-678h582z" />
    <glyph glyph-name=".null" horiz-adv-x="0" 
 />
    <glyph glyph-name="nonmarkingreturn" horiz-adv-x="249" 
 />
    <glyph glyph-name="space" unicode=" " horiz-adv-x="249" 
 />
    <glyph glyph-name="exclam" unicode="!" horiz-adv-x="316" 
d="M204 200h-62l-10 512h83zM130 0v84h86v-84h-86z" />
    <glyph glyph-name="quotedbl" unicode="&#x22;" horiz-adv-x="423" 
d="M256 542v170h79v-170h-79zM88 542v170h79v-170h-79z" />
    <glyph glyph-name="numbersign" unicode="#" horiz-adv-x="653" 
d="M506 432l-23 -141h89v-64h-99l-36 -227h-74l36 227h-160l-35 -227h-74l36 227h-89v64h100l23 141h-92v66h101l34 215h75l-35 -215h159l34 215h73l-34 -215h87v-66h-96zM273 432l-23 -141h159l23 141h-159z" />
    <glyph glyph-name="dollar" unicode="$" horiz-adv-x="596" 
d="M322 -4v-110h-60v108q-126 0 -220 94l52 52q77 -77 172 -77v265l-20 2q-37 3 -72 18.5t-74 50t-39 118.5q0 87 54.5 143.5t146.5 56.5v89h60v-89q55 0 98.5 -19t87.5 -58l-49 -49q-33 30 -64.5 45t-75.5 15v-259l31 -5q51 -8 78 -19t69.5 -47t42.5 -125q0 -88 -60 -144
t-158 -56zM266 651q-62 -5 -96 -40t-34 -91q0 -54 25.5 -76t50.5 -31.5t54 -13.5v252zM429 283q-25 22 -50.5 27t-59.5 10v-257q67 0 106 36t39 95t-35 89z" />
    <glyph glyph-name="percent" unicode="%" horiz-adv-x="833" 
d="M634 -7q-60 0 -97.5 36.5t-37.5 98.5v105q0 61 38 98t97 37t97 -37t38 -98v-105q0 -61 -38 -98t-97 -37zM280 0h-60l334 712h60zM200 345q-60 0 -97.5 36.5t-37.5 97.5v105q0 61 38 98t97 37t97 -37t38 -98v-105q0 -60 -38 -97t-97 -37zM712 231q0 41 -19 64t-59 23
t-59 -23t-19 -64v-101q0 -42 18.5 -64.5t59.5 -22.5q40 0 59 22.5t19 64.5v101zM278 582q0 41 -19 64t-59 23t-59 -23t-19 -64v-101q0 -42 19 -64t59 -22q39 0 58.5 22.5t19.5 63.5v101z" />
    <glyph glyph-name="ampersand" unicode="&#x26;" horiz-adv-x="739" 
d="M576 0l-64 78q-35 -32 -85 -58t-125 -26q-103 0 -164 57t-61 150q0 55 29.5 102t124.5 111q-39 47 -58 79.5t-19 75.5q0 64 44.5 106.5t112.5 42.5q67 0 111 -43t44 -107q0 -41 -20.5 -71t-58.5 -56l-53 -36l182 -219q22 34 31 69t9 94h72q0 -71 -15.5 -123.5
t-50.5 -94.5l109 -131h-95zM311 653q-36 0 -59 -23t-23 -60q0 -24 13.5 -48t50.5 -69l38 26q31 22 47.5 41.5t16.5 47.5q0 35 -24 60t-60 25zM273 366q-64 -44 -93 -76t-29 -87q0 -63 41.5 -102.5t108.5 -39.5q46 0 84.5 14.5t83.5 54.5z" />
    <glyph glyph-name="quotesingle" unicode="'" horiz-adv-x="255" 
d="M88 542v170h79v-170h-79z" />
    <glyph glyph-name="parenleft" unicode="(" horiz-adv-x="298" 
d="M185 -94q-16 16 -36.5 37.5t-34 46t-18 50t-4.5 55.5v522q0 35 4 56.5t17.5 47t36.5 49.5t35 36l49 -49q-16 -16 -30.5 -31.5t-27 -40.5t-12.5 -74v-510q0 -49 12 -73t23.5 -37t34.5 -36z" />
    <glyph glyph-name="parenright" unicode=")" horiz-adv-x="298" 
d="M185 -8q-14 -26 -37 -50t-35 -36l-51 51q15 16 31 31q15 17 23 33t11.5 34.5t3.5 45.5v510q0 51 -10.5 72t-17 29t-41.5 43l51 51q16 -16 36.5 -37.5t34.5 -46.5t17.5 -47.5t3.5 -57.5v-522q0 -32 -3.5 -56t-16.5 -47z" />
    <glyph glyph-name="asterisk" unicode="*" horiz-adv-x="474" 
d="M379 423l-117 71l4 -137h-58l4 137l-116 -71l-29 49l120 65l-120 66l29 48l116 -71l-4 137h58l-4 -137l117 71l28 -48l-120 -66l120 -65z" />
    <glyph glyph-name="plus" unicode="+" 
d="M295 234v-176h-67v176h-176v67h176v174h67v-174h175v-67h-175z" />
    <glyph glyph-name="comma" unicode="," horiz-adv-x="264" 
d="M88 -144v232h88v-153z" />
    <glyph glyph-name="hyphen" unicode="-" horiz-adv-x="426" 
d="M76 236v67h274v-67h-274z" />
    <glyph glyph-name="period" unicode="." horiz-adv-x="270" 
d="M88 0v94h94v-94h-94z" />
    <glyph glyph-name="slash" unicode="/" horiz-adv-x="355" 
d="M71 -74h-71l285 860h71z" />
    <glyph glyph-name="zero" unicode="0" 
d="M261 -6q-85 0 -140 54t-55 142v332q0 87 55.5 141.5t139.5 54.5q85 0 140 -54t55 -142v-332q0 -87 -55.5 -141.5t-139.5 -54.5zM384 518q0 60 -32.5 98t-90.5 38t-90.5 -37.5t-32.5 -98.5v-324q0 -60 32.5 -98t90.5 -38t90.5 37.5t32.5 98.5v324z" />
    <glyph glyph-name="one" unicode="1" 
d="M258 0v632l-133 -117v82l133 115h72v-712h-72z" />
    <glyph glyph-name="two" unicode="2" 
d="M68 0v64l281 357q40 52 40 105q0 59 -32.5 93.5t-91.5 34.5q-54 0 -89 -31.5t-35 -97.5h-72q0 85 54 139t142 54t142 -52t54 -140q0 -42 -12.5 -72.5t-44.5 -71.5l-249 -318h306v-64h-393z" />
    <glyph glyph-name="three" unicode="3" 
d="M251 -7q-90 0 -149.5 48t-59.5 140h72q0 -62 40.5 -93t96.5 -31q59 0 98 37t39 101q0 67 -34 102.5t-106 35.5h-15v63h15q64 0 95.5 33.5t31.5 95.5t-35 96t-89 34q-55 0 -89 -32t-39 -87h-72q0 84 57.5 133.5t142.5 49.5q87 0 141.5 -53.5t54.5 -139.5q0 -114 -96 -158
q109 -41 109 -174q0 -95 -59 -148t-150 -53z" />
    <glyph glyph-name="four" unicode="4" 
d="M395 113v-113h-71v113h-284v65l257 534h77l-257 -534h207v202h71v-202h87v-65h-87z" />
    <glyph glyph-name="five" unicode="5" 
d="M405 46q-26 -26 -60.5 -39.5t-81.5 -13.5q-45 0 -82 13.5t-61.5 38.5t-37 54.5t-12.5 68.5h72q7 -55 36 -83t85 -28q55 0 80.5 25.5t36 57.5t10.5 95q0 79 -24.5 126t-95.5 47q-46 0 -76.5 -18.5t-41.5 -51.5h-65v374h360v-64h-295v-226q44 49 128 49q78 0 114 -36
t52 -79t16 -121q0 -82 -14.5 -121.5t-42.5 -67.5z" />
    <glyph glyph-name="six" unicode="6" 
d="M263 -6q-90 0 -144 56t-54 149q0 70 45 160l175 353h74l-159 -320q33 15 75 15q82 0 133.5 -56.5t51.5 -145.5q0 -93 -53.5 -152t-143.5 -59zM262 346q-57 0 -91 -39t-34 -105t34 -105t91 -39t91.5 39.5t34.5 104.5q0 62 -33 103t-93 41z" />
    <glyph glyph-name="seven" unicode="7" 
d="M224 0h-76l247 648h-248v-112h-71v176h395v-64z" />
    <glyph glyph-name="eight" unicode="8" 
d="M261 -6q-89 0 -149.5 56.5t-60.5 145.5q0 59 29 102t78 71q-43 25 -68 65t-25 93q0 83 55 137t141 54q84 0 140 -54t56 -137q0 -54 -24 -93.5t-68 -64.5q48 -27 77 -71t29 -102q0 -89 -59.5 -145.5t-150.5 -56.5zM261 654q-54 0 -89 -36t-35 -92q0 -57 34 -92t90 -35
q55 0 89.5 35.5t34.5 91.5t-34 92t-90 36zM261 336q-58 0 -98 -40t-40 -99t39 -99t99 -40q58 0 98 40t40 99t-39 99t-99 40z" />
    <glyph glyph-name="nine" unicode="9" 
d="M412 353l-175 -353h-75l160 320q-33 -15 -76 -15q-83 0 -133.5 56.5t-50.5 145.5q0 93 53.5 152t143.5 59t144 -56t54 -149q0 -70 -45 -160zM259 654q-57 0 -91 -39t-34 -105q0 -63 32.5 -103.5t92.5 -40.5q57 0 91.5 39.5t34.5 104.5q0 66 -34 105t-92 39z" />
    <glyph glyph-name="colon" unicode=":" horiz-adv-x="297" 
d="M115 301v94h94v-94h-94zM115 0v94h94v-94h-94z" />
    <glyph glyph-name="semicolon" unicode=";" horiz-adv-x="297" 
d="M115 301v94h94v-94h-94zM117 -144v232h88v-153z" />
    <glyph glyph-name="less" unicode="&#x3c;" horiz-adv-x="1027" 
d="M183 234l365 -364h-94l-399 399l399 399h94l-365 -364h789v-70h-789z" />
    <glyph glyph-name="equal" unicode="=" 
d="M52 320v67h418v-67h-418zM52 151v66h418v-66h-418z" />
    <glyph glyph-name="greater" unicode="&#x3e;" horiz-adv-x="1027" 
d="M573 -130h-94l365 364h-789v70h789l-365 364h94l399 -399z" />
    <glyph glyph-name="question" unicode="?" horiz-adv-x="497" 
d="M406 415l-82 -118q-8 -12 -13 -29t-5 -29v-39h-72v40q0 50 31 94l81 117q18 27 25.5 43.5t7.5 41.5q0 51 -32.5 84.5t-82.5 33.5q-52 0 -84 -35t-32 -84h-72q0 78 53.5 130.5t134.5 52.5q80 0 133.5 -51.5t53.5 -130.5q0 -34 -10.5 -60t-34.5 -61zM227 0v84h86v-84h-86z
" />
    <glyph glyph-name="at" unicode="@" horiz-adv-x="713" 
d="M572 0v55q-25 -32 -56 -47t-78 -15q-41 0 -77 16t-60 46t-33.5 70.5t-9.5 112.5t8.5 111.5t43.5 86.5t127 47q83 0 134 -63v78q0 41 -8 66t-39.5 56.5t-102.5 31.5h-130q-69 0 -100 -31t-40 -56t-9 -67v-337q0 -47 11 -71t46 -50l-49 -49q-46 34 -62 68t-16 101v336
q0 104 55.5 160.5t154.5 56.5h148q98 0 154.5 -56.5t56.5 -160.5v-497zM450 421q-72 0 -96.5 -49t-24.5 -134q0 -84 24.5 -133.5t96.5 -49.5t96.5 49t24.5 134q0 84 -24.5 133.5t-96.5 49.5z" />
    <glyph glyph-name="A" unicode="A" horiz-adv-x="611" 
d="M518 0l-57 161h-311l-57 -161h-81l262 712h64l261 -712h-81zM307 603l-134 -376h266z" />
    <glyph glyph-name="B" unicode="B" horiz-adv-x="668" 
d="M380 0h-277v712h268q94 0 152 -51t58 -139q0 -55 -29 -97t-76 -59q52 -19 84 -63.5t32 -105.5q0 -95 -57 -146t-155 -51zM365 644h-186v-247h186q63 0 101.5 31t38.5 93q0 61 -38.5 92t-101.5 31zM373 329h-194v-261h194q66 0 104.5 35.5t38.5 95.5t-38 95t-105 35z" />
    <glyph glyph-name="C" unicode="C" horiz-adv-x="637" 
d="M325 -6q-108 0 -168 60t-70.5 117t-10.5 185q0 106 6 169.5t70.5 128t172.5 64.5q97 0 163 -56t84 -156h-78q-15 67 -58.5 105.5t-110.5 38.5q-75 0 -115.5 -41.5t-49 -88t-8.5 -164.5q0 -117 8.5 -164t49 -88.5t115.5 -41.5q67 0 111.5 38.5t59.5 105.5h76
q-17 -99 -83.5 -155.5t-163.5 -56.5z" />
    <glyph glyph-name="D" unicode="D" horiz-adv-x="673" 
d="M527 66q-66 -66 -180 -66h-244v712h244q114 0 171.5 -57.5t68 -119t10.5 -171.5v-38q0 -91 -12.5 -153t-57.5 -107zM474 592q-26 27 -61.5 39.5t-78.5 12.5h-155v-576h155q45 0 78.5 11.5t63.5 43t37.5 88t7.5 153.5v33q0 93 -11 131t-36 64z" />
    <glyph glyph-name="E" unicode="E" horiz-adv-x="600" 
d="M103 0v712h442v-68h-366v-251h312v-68h-312v-257h366v-68h-442z" />
    <glyph glyph-name="F" unicode="F" horiz-adv-x="580" 
d="M179 644v-262h312v-68h-312v-314h-76v712h442v-68h-366z" />
    <glyph glyph-name="G" unicode="G" horiz-adv-x="650" 
d="M515 76q-76 -82 -190 -82q-108 0 -168 60t-70.5 117t-10.5 185q0 106 6 169.5t70.5 128t172.5 64.5q101 0 167 -58t82 -155h-76q-15 68 -60.5 106.5t-112.5 38.5q-74 0 -115 -42.5t-49.5 -88t-8.5 -163.5q0 -117 8.5 -164t49 -88.5t115.5 -41.5q85 0 130 54.5t45 135.5
v54h-175v67h251v-113q0 -62 -14 -105.5t-47 -78.5z" />
    <glyph glyph-name="H" unicode="H" horiz-adv-x="696" 
d="M517 0v325h-338v-325h-76v712h76v-319h338v319h76v-712h-76z" />
    <glyph glyph-name="I" unicode="I" horiz-adv-x="282" 
d="M103 0v712h76v-712h-76z" />
    <glyph glyph-name="J" unicode="J" horiz-adv-x="501" 
d="M186 -6q-99 0 -163 64l51 51q23 -23 47.5 -35t64.5 -12q70 0 108 42t38 122v486h76v-496q0 -101 -61.5 -161.5t-160.5 -60.5z" />
    <glyph glyph-name="K" unicode="K" horiz-adv-x="650" 
d="M546 0l-217 379l-150 -180v-199h-76v712h76v-409l332 409h93l-224 -275l256 -437h-90z" />
    <glyph glyph-name="L" unicode="L" horiz-adv-x="573" 
d="M103 0v712h76v-644h364v-68h-440z" />
    <glyph glyph-name="M" unicode="M" horiz-adv-x="816" 
d="M637 0v541l-195 -429h-65l-198 429v-541h-76v712h76l232 -505l226 505h76v-712h-76z" />
    <glyph glyph-name="N" unicode="N" horiz-adv-x="732" 
d="M557 0l-378 571v-571h-76v712h72l378 -569v569h76v-712h-72z" />
    <glyph glyph-name="O" unicode="O" horiz-adv-x="650" 
d="M507 68q-74 -74 -182 -74t-168 60t-70.5 117t-10.5 185q0 106 6 169.5t70.5 128t172.5 64.5t168 -60t70.5 -117t10.5 -185q0 -106 -6 -169.5t-61 -118.5zM448 599q-49 51 -123 51t-115 -42.5t-49.5 -88t-8.5 -163.5q0 -117 8.5 -163.5t49.5 -88.5t115 -42t115 42.5
t49.5 88t8.5 163.5q0 117 -8.5 163.5t-41.5 79.5z" />
    <glyph glyph-name="P" unicode="P" horiz-adv-x="630" 
d="M368 293h-189v-293h-76v712h265q99 0 159.5 -56.5t60.5 -152.5q0 -95 -60.5 -152.5t-159.5 -57.5zM361 644h-182v-283h182q70 0 110.5 36t40.5 106q0 69 -41 105t-110 36z" />
    <glyph glyph-name="Q" unicode="Q" horiz-adv-x="649" 
d="M557 -35l-79 79q-65 -50 -153 -50q-108 0 -168 60t-70.5 117t-10.5 185q0 106 6 169.5t70.5 128t172.5 64.5t168 -60t70.5 -117t10.5 -185q0 -100 -4 -158t-45 -109l78 -78zM448 599q-49 51 -123 51t-115 -42.5t-49.5 -88t-8.5 -163.5q0 -117 8.5 -163.5t49.5 -88.5
t115 -42q56 0 101 34l-90 90l46 46l87 -87q18 29 23.5 74t5.5 137q0 117 -8.5 163.5t-41.5 79.5z" />
    <glyph glyph-name="R" unicode="R" horiz-adv-x="656" 
d="M512 0l-162 316h-171v-316h-76v712h273q94 0 152.5 -53.5t58.5 -144.5q0 -76 -42 -126t-113 -65l169 -323h-89zM369 644h-190v-261h190q65 0 103.5 33t38.5 97q0 63 -39 97t-103 34z" />
    <glyph glyph-name="S" unicode="S" horiz-adv-x="588" 
d="M286 -6q-82 0 -137 21t-107 73l52 52q43 -43 87.5 -60.5t106.5 -17.5q78 0 123 35t45 97q0 59 -25 81t-44.5 29t-57.5 13l-83 13q-85 14 -135 58t-50 129q0 91 61.5 146t166.5 55q68 0 116.5 -18t95.5 -60l-49 -49q-33 30 -72.5 45.5t-93.5 15.5q-71 0 -110.5 -35.5
t-39.5 -96.5q0 -54 24 -74.5t50 -31t54 -15.5l78 -12q49 -7 78 -18.5t70.5 -47t41.5 -125.5q0 -93 -66.5 -147.5t-179.5 -54.5z" />
    <glyph glyph-name="T" unicode="T" horiz-adv-x="548" 
d="M312 644v-644h-76v644h-206v68h488v-68h-206z" />
    <glyph glyph-name="U" unicode="U" horiz-adv-x="683" 
d="M341 -6q-109 0 -178.5 67.5t-69.5 173.5v477h76v-471q0 -81 47 -130t125 -49q77 0 125 49t48 130v471h76v-477q0 -107 -70 -174t-179 -67z" />
    <glyph glyph-name="V" unicode="V" horiz-adv-x="546" 
d="M304 0h-62l-234 712h80l185 -576l185 576h80z" />
    <glyph glyph-name="W" unicode="W" horiz-adv-x="854" 
d="M656 0h-71l-158 570l-158 -570h-71l-182 712h81l139 -574l157 574h68l157 -574l139 574h81z" />
    <glyph glyph-name="X" unicode="X" horiz-adv-x="551" 
d="M448 0l-173 299l-174 -299h-86l218 365l-204 347h88l158 -281l158 281h88l-205 -347l220 -365h-88z" />
    <glyph glyph-name="Y" unicode="Y" horiz-adv-x="514" 
d="M296 294v-294h-76v294l-212 418h82l168 -341l166 341h82z" />
    <glyph glyph-name="Z" unicode="Z" horiz-adv-x="556" 
d="M57 0v72l356 572h-342v68h428v-64l-359 -580h359v-68h-442z" />
    <glyph glyph-name="bracketleft" unicode="[" horiz-adv-x="313" 
d="M92 -74v860h177v-64h-105v-732h105v-64h-177z" />
    <glyph glyph-name="backslash" unicode="\" horiz-adv-x="355" 
d="M284 -74l-284 857h71l284 -857h-71z" />
    <glyph glyph-name="bracketright" unicode="]" horiz-adv-x="313" 
d="M44 -74v62h108v736h-108v62h177v-860h-177z" />
    <glyph glyph-name="asciicircum" unicode="^" horiz-adv-x="537" 
d="M391 413l-122 228l-123 -228h-74l164 305h66l163 -305h-74z" />
    <glyph glyph-name="underscore" unicode="_" horiz-adv-x="537" 
d="M0 -165v51h537v-51h-537z" />
    <glyph glyph-name="grave" unicode="`" horiz-adv-x="500" 
d="M233 594l-108 153h86l88 -153h-66z" />
    <glyph glyph-name="a" unicode="a" horiz-adv-x="526" 
d="M369 0v47q-29 -29 -61 -41t-81 -12q-52 0 -83.5 10t-62 41t-30.5 94q0 66 44 104t126 38h148v47q0 55 -29.5 81.5t-96.5 26.5q-49 0 -75 -12t-49 -44l-49 45q32 42 71.5 57.5t102.5 15.5q197 0 197 -164v-334h-72zM369 227h-138q-110 0 -110 -87q0 -84 113 -84q38 0 63 6
t48.5 28.5t23.5 83.5v53z" />
    <glyph glyph-name="b" unicode="b" horiz-adv-x="545" 
d="M421 37q-19 -19 -51.5 -31t-68.5 -12q-44 0 -77 14t-62 51v-59h-72v712h72v-277q28 35 62 49t77 14q77 0 116 -39t51.5 -91t12.5 -122q0 -69 -12.5 -121.5t-47.5 -87.5zM286 434q-73 0 -98.5 -51t-25.5 -137q0 -88 25 -138t99 -50q72 0 97.5 51t25.5 137q0 88 -25 138
t-98 50z" />
    <glyph glyph-name="c" unicode="c" horiz-adv-x="490" 
d="M281 -6q-96 0 -157 65.5t-61 186.5q0 122 60.5 187t157.5 65q53 0 88 -15.5t74 -57.5l-49 -46q-28 31 -53 43t-60 12q-75 0 -110.5 -50.5t-35.5 -137.5q0 -47 7 -77t35.5 -70.5t103.5 -40.5q36 0 60 12t53 44l49 -47q-38 -41 -74 -57t-88 -16z" />
    <glyph glyph-name="d" unicode="d" horiz-adv-x="545" 
d="M384 0v59q-28 -37 -61.5 -51t-78.5 -14q-77 0 -116 39t-51.5 91t-12.5 122q0 69 12.5 121.5t39.5 79.5t59.5 39t68.5 12q45 0 77.5 -13t61.5 -50v277h72v-712h-71zM260 434q-73 0 -98.5 -51t-25.5 -137q0 -88 25 -138t99 -50q72 0 97.5 51t25.5 137q0 88 -25 138t-98 50z
" />
    <glyph glyph-name="e" unicode="e" horiz-adv-x="530" 
d="M135 227q0 -81 37.5 -125.5t107.5 -44.5q42 0 70 12.5t59 43.5l49 -43q-40 -40 -79.5 -58t-100.5 -18q-101 0 -158 62.5t-57 189.5q0 119 53.5 185.5t148.5 66.5t148.5 -63.5t53.5 -174.5v-33h-332zM380 363q-14 34 -45 54t-70 20t-69.5 -20t-42 -46.5t-15 -45.5
t-3.5 -44h260q0 30 -2.5 44t-12.5 38z" />
    <glyph glyph-name="f" unicode="f" horiz-adv-x="314" 
d="M178 434v-434h-72v434h-63v55h63v93q0 57 32.5 94.5t92.5 37.5h52v-62h-39q-66 0 -66 -72v-91h105v-55h-105z" />
    <glyph glyph-name="g" unicode="g" horiz-adv-x="543" 
d="M248 -226q-55 0 -90.5 14.5t-76.5 51.5l47 46q29 -26 54 -37.5t64 -11.5q68 0 101.5 42t33.5 109v77q-28 -36 -61.5 -50t-76.5 -14q-36 0 -67 12t-58.5 39t-40.5 79.5t-13 118.5q0 70 12.5 120t39.5 77t59.5 39t68.5 12q45 0 77 -13.5t61 -50.5v58h71v-507
q0 -93 -55 -152t-150 -59zM259 434q-72 0 -97.5 -50.5t-25.5 -133.5q0 -84 25 -134t98 -50t97.5 49.5t24.5 134.5t-24.5 134.5t-97.5 49.5z" />
    <glyph glyph-name="h" unicode="h" horiz-adv-x="562" 
d="M405 0v304q0 63 -31.5 96.5t-88.5 33.5t-90 -34t-33 -96v-304h-72v712h72v-274q53 60 138 60q83 0 130 -49t47 -133v-316h-72z" />
    <glyph glyph-name="i" unicode="i" horiz-adv-x="253" 
d="M86 632v81h81v-81h-81zM90 0v492h72v-492h-72z" />
    <glyph glyph-name="j" unicode="j" horiz-adv-x="253" 
d="M86 632v81h81v-81h-81zM37 -221h-52v63h39q36 0 51 17t15 55v575h72v-578q0 -59 -31.5 -95.5t-93.5 -36.5z" />
    <glyph glyph-name="k" unicode="k" horiz-adv-x="536" 
d="M414 0l-156 252l-96 -110v-142h-72v712h72v-476l222 256h90l-167 -188l196 -304h-89z" />
    <glyph glyph-name="l" unicode="l" horiz-adv-x="297" 
d="M213 0q-62 0 -93.5 35.5t-31.5 95.5v581h72v-578q0 -37 14.5 -54.5t51.5 -17.5h39v-62h-52z" />
    <glyph glyph-name="m" unicode="m" horiz-adv-x="879" 
d="M722 0v303q0 64 -32 97.5t-89 33.5q-55 0 -89 -33t-34 -90v-311h-72v303q0 64 -32 97.5t-89 33.5t-90 -34t-33 -97v-303h-72v492h72v-54q53 60 139 60q105 0 151 -82q58 82 162 82q39 0 71.5 -12t70.5 -48.5t38 -122.5v-315h-72z" />
    <glyph glyph-name="n" unicode="n" horiz-adv-x="562" 
d="M405 0v303q0 64 -32 97.5t-89 33.5t-89.5 -33.5t-32.5 -97.5v-303h-72v492h72v-54q53 60 138 60q80 0 128.5 -48t48.5 -135v-315h-72z" />
    <glyph glyph-name="o" unicode="o" horiz-adv-x="530" 
d="M406 50q-27 -27 -61.5 -41.5t-79.5 -14.5q-44 0 -79 14.5t-66 46t-43.5 78t-12.5 113.5q0 65 12.5 112.5t43.5 79t65.5 46t79.5 14.5q44 0 79 -14.5t66 -46t43.5 -78t12.5 -113.5q0 -65 -12.5 -112.5t-47.5 -83.5zM355 398q-36 36 -90 36q-53 0 -83 -30t-38 -69.5
t-8 -88.5q0 -54 7.5 -90.5t38 -67t83.5 -30.5q54 0 84 30t37.5 67.5t7.5 90.5q0 52 -7.5 90t-31.5 62z" />
    <glyph glyph-name="p" unicode="p" horiz-adv-x="545" 
d="M421 37q-19 -19 -51.5 -31t-68.5 -12q-46 0 -77.5 13t-61.5 51v-278h-72v712h72v-58q28 36 61.5 50t77.5 14q77 0 116 -39t51.5 -91t12.5 -122q0 -69 -12.5 -121.5t-47.5 -87.5zM286 434q-73 0 -98.5 -51t-25.5 -137q0 -88 25 -138t99 -50q72 0 97.5 51t25.5 137
q0 88 -25 138t-98 50z" />
    <glyph glyph-name="q" unicode="q" horiz-adv-x="545" 
d="M383 -220v278q-28 -36 -61.5 -50t-77.5 -14q-77 0 -116 39t-51.5 91t-12.5 122q0 69 12.5 121.5t39.5 79.5t59.5 39t68.5 12q46 0 78.5 -13.5t61.5 -50.5v58h71v-712h-72zM260 434q-73 0 -98.5 -51t-25.5 -137q0 -88 25 -138t99 -50q72 0 97.5 51t25.5 137q0 88 -25 138
t-98 50z" />
    <glyph glyph-name="r" unicode="r" horiz-adv-x="421" 
d="M365 398q-20 20 -38.5 28t-46.5 8q-53 0 -85.5 -37.5t-32.5 -94.5v-302h-72v492h72v-60q20 30 57.5 48t80.5 18q38 0 64.5 -9.5t53.5 -36.5z" />
    <glyph glyph-name="s" unicode="s" horiz-adv-x="496" 
d="M245 -6q-64 0 -113 16.5t-89 54.5l48 48q28 -30 66 -43.5t87 -13.5q63 0 97 21.5t34 65.5q0 65 -82 72l-81 7q-71 0 -109 35t-38 97q0 67 50 105.5t131 38.5q112 0 177 -53l-47 -47q-51 39 -131 39q-54 0 -82 -21t-28 -60q0 -34 20 -53t66 -19l79 -7q70 -6 107.5 -36.5
t37.5 -96.5q0 -71 -54 -110.5t-146 -39.5z" />
    <glyph glyph-name="t" unicode="t" horiz-adv-x="332" 
d="M228 0q-61 0 -93.5 37t-32.5 95v302h-62v55h62v154h72v-154h105v-55h-105v-300q0 -72 67 -72h38v-62h-51z" />
    <glyph glyph-name="u" unicode="u" horiz-adv-x="562" 
d="M401 0v55q-53 -61 -139 -61q-81 0 -129 47.5t-48 136.5v314h72v-303q0 -64 31.5 -97.5t88.5 -33.5t90 34t33 97v303h72v-492h-71z" />
    <glyph glyph-name="v" unicode="v" horiz-adv-x="447" 
d="M255 0h-64l-180 492h78l134 -395l135 395h78z" />
    <glyph glyph-name="w" unicode="w" horiz-adv-x="724" 
d="M558 0h-67l-129 382l-128 -382h-67l-156 492h78l113 -395l129 395h62l130 -395l112 395h78z" />
    <glyph glyph-name="x" unicode="x" horiz-adv-x="478" 
d="M358 0l-118 191l-120 -191h-87l167 251l-160 241h87l113 -182l111 182h87l-160 -241l167 -251h-87z" />
    <glyph glyph-name="y" unicode="y" horiz-adv-x="447" 
d="M212 -119q-14 -39 -33.5 -57.5t-45 -26.5t-52.5 -8h-31v64h22q37 0 52.5 12.5t28.5 48.5l35 96l-177 482h78l135 -395l134 395h78z" />
    <glyph glyph-name="z" unicode="z" horiz-adv-x="459" 
d="M50 0v62l274 366h-259v64h342v-61l-275 -367h275v-64h-357z" />
    <glyph glyph-name="braceleft" unicode="{" horiz-adv-x="354" 
d="M268 -74q-71 0 -101 30t-30 99v191q0 42 -18 60t-45 18h-26v64h26q14 0 25 4.5t24.5 18t13.5 55.5v191q0 41 6 61t30 44t95 24h37v-64h-23q-46 0 -59.5 -13.5t-13.5 -64.5v-188q0 -40 -16 -62.5t-47 -37.5q32 -15 47.5 -37t15.5 -63v-188q0 -51 13.5 -64.5t59.5 -13.5h23
v-64h-37z" />
    <glyph glyph-name="bar" unicode="|" horiz-adv-x="326" 
d="M127 -74v860h72v-860h-72z" />
    <glyph glyph-name="braceright" unicode="}" horiz-adv-x="354" 
d="M280 324q-14 0 -25 -4.5t-24.5 -18t-13.5 -55.5v-191q0 -41 -6 -61t-30 -44t-95 -24h-38v64h24q29 0 39.5 2.5t22 14t11.5 61.5v188q0 40 16 62.5t47 37.5q-32 15 -47.5 37t-15.5 63v188q0 50 -11 61t-23.5 14t-38.5 3h-24v64h38q71 0 101 -30t30 -99v-191q0 -42 18 -60
t45 -18h25v-64h-25z" />
    <glyph glyph-name="asciitilde" unicode="~" horiz-adv-x="539" 
d="M361 210q-31 0 -50.5 7.5t-52 22t-47.5 20t-34 5.5q-24 0 -39 -7.5t-45 -37.5l-44 45q42 42 68 55t61 13q24 0 46.5 -7.5t55 -22t47.5 -20t34 -5.5q24 0 39 7.5t45 37.5l45 -45q-42 -42 -68 -55t-61 -13z" />
    <glyph glyph-name="Adieresis" unicode="&#xc4;" horiz-adv-x="611" 
d="M518 0l-57 161h-311l-57 -161h-81l262 712h64l261 -712h-81zM307 603l-134 -376h266zM372 789v89h72v-89h-72zM160 789v89h72v-89h-72z" />
    <glyph glyph-name="Aring" unicode="&#xc5;" horiz-adv-x="611" 
d="M518 0l-57 161h-311l-57 -161h-81l262 712h64l261 -712h-81zM307 603l-134 -376h266zM302 748q-48 0 -83 35t-35 84t34.5 83.5t83.5 34.5q48 0 83 -34t35 -84q0 -49 -34 -84t-84 -35zM302 935q-29 0 -49 -19t-20 -49q0 -29 20 -49t49 -20t49 20t20 49q0 28 -20 48t-49 20
z" />
    <glyph glyph-name="Ccedilla" unicode="&#xc7;" horiz-adv-x="637" 
d="M325 -6q-108 0 -168 60t-70.5 117t-10.5 185q0 106 6 169.5t70.5 128t172.5 64.5q97 0 163 -56t84 -156h-78q-15 67 -58.5 105.5t-110.5 38.5q-75 0 -115.5 -41.5t-49 -88t-8.5 -164.5q0 -117 8.5 -164t49 -88.5t115.5 -41.5q67 0 111.5 38.5t59.5 105.5h76
q-17 -99 -83.5 -155.5t-163.5 -56.5zM311 -216h-79l71 149h67z" />
    <glyph glyph-name="Eacute" unicode="&#xc9;" horiz-adv-x="600" 
d="M103 0v712h442v-68h-366v-251h312v-68h-312v-257h366v-68h-442zM330 781h-66l88 153h86z" />
    <glyph glyph-name="Ntilde" unicode="&#xd1;" horiz-adv-x="732" 
d="M557 0l-378 571v-571h-76v712h72l378 -569v569h76v-712h-72zM428 795q-24 0 -38.5 6t-35 18t-29.5 16t-24 4t-26 -5t-33 -27l-37 36q30 30 52 40.5t43 10.5t34.5 -5t41 -22t51.5 -17q13 0 26 6t33 26l37 -36q-30 -30 -52.5 -40.5t-42.5 -10.5z" />
    <glyph glyph-name="Odieresis" unicode="&#xd6;" horiz-adv-x="650" 
d="M507 68q-74 -74 -182 -74t-168 60t-70.5 117t-10.5 185q0 106 6 169.5t70.5 128t172.5 64.5t168 -60t70.5 -117t10.5 -185q0 -106 -6 -169.5t-61 -118.5zM448 599q-49 51 -123 51t-115 -42.5t-49.5 -88t-8.5 -163.5q0 -117 8.5 -163.5t49.5 -88.5t115 -42t115 42.5
t49.5 88t8.5 163.5q0 117 -8.5 163.5t-41.5 79.5zM395 789v89h72v-89h-72zM183 789v89h72v-89h-72z" />
    <glyph glyph-name="Udieresis" unicode="&#xdc;" horiz-adv-x="682" 
d="M341 -6q-109 0 -178.5 67.5t-69.5 173.5v477h76v-471q0 -81 47 -130t125 -49q77 0 125 49t48 130v471h76v-477q0 -107 -70 -174t-179 -67zM411 789v89h72v-89h-72zM199 789v89h72v-89h-72z" />
    <glyph glyph-name="aacute" unicode="&#xe1;" horiz-adv-x="526" 
d="M369 0v47q-29 -29 -61 -41t-81 -12q-52 0 -83.5 10t-62 41t-30.5 94q0 66 44 104t126 38h148v47q0 55 -29.5 81.5t-96.5 26.5q-49 0 -75 -12t-49 -44l-49 45q32 42 71.5 57.5t102.5 15.5q197 0 197 -164v-334h-72zM369 227h-138q-110 0 -110 -87q0 -84 113 -84q38 0 63 6
t48.5 28.5t23.5 83.5v53zM269 594h-66l88 153h86z" />
    <glyph glyph-name="agrave" unicode="&#xe0;" horiz-adv-x="526" 
d="M369 0v47q-29 -29 -61 -41t-81 -12q-52 0 -83.5 10t-62 41t-30.5 94q0 66 44 104t126 38h148v47q0 55 -29.5 81.5t-96.5 26.5q-49 0 -75 -12t-49 -44l-49 45q32 42 71.5 57.5t102.5 15.5q197 0 197 -164v-334h-72zM369 227h-138q-110 0 -110 -87q0 -84 113 -84q38 0 63 6
t48.5 28.5t23.5 83.5v53zM235 594l-108 153h86l88 -153h-66z" />
    <glyph glyph-name="acircumflex" unicode="&#xe2;" horiz-adv-x="526" 
d="M369 0v47q-29 -29 -61 -41t-81 -12q-52 0 -83.5 10t-62 41t-30.5 94q0 66 44 104t126 38h148v47q0 55 -29.5 81.5t-96.5 26.5q-49 0 -75 -12t-49 -44l-49 45q32 42 71.5 57.5t102.5 15.5q197 0 197 -164v-334h-72zM369 227h-138q-110 0 -110 -87q0 -84 113 -84q38 0 63 6
t48.5 28.5t23.5 83.5v53zM342 594l-90 104l-90 -104h-69l125 153h68l125 -153h-69z" />
    <glyph glyph-name="adieresis" unicode="&#xe4;" horiz-adv-x="526" 
d="M369 0v47q-29 -29 -61 -41t-81 -12q-52 0 -83.5 10t-62 41t-30.5 94q0 66 44 104t126 38h148v47q0 55 -29.5 81.5t-96.5 26.5q-49 0 -75 -12t-49 -44l-49 45q32 42 71.5 57.5t102.5 15.5q197 0 197 -164v-334h-72zM369 227h-138q-110 0 -110 -87q0 -84 113 -84q38 0 63 6
t48.5 28.5t23.5 83.5v53zM322 602v89h72v-89h-72zM110 602v89h72v-89h-72z" />
    <glyph glyph-name="atilde" unicode="&#xe3;" horiz-adv-x="526" 
d="M369 0v47q-29 -29 -61 -41t-81 -12q-52 0 -83.5 10t-62 41t-30.5 94q0 66 44 104t126 38h148v47q0 55 -29.5 81.5t-96.5 26.5q-49 0 -75 -12t-49 -44l-49 45q32 42 71.5 57.5t102.5 15.5q197 0 197 -164v-334h-72zM369 227h-138q-110 0 -110 -87q0 -84 113 -84q38 0 63 6
t48.5 28.5t23.5 83.5v53zM314 608q-24 0 -38.5 6t-35 18t-29.5 16t-24 4t-26 -5t-33 -27l-37 36q30 30 52 40.5t43 10.5t34.5 -5t41 -22t51.5 -17q13 0 26 6t33 26l37 -36q-30 -30 -52.5 -40.5t-42.5 -10.5z" />
    <glyph glyph-name="aring" unicode="&#xe5;" horiz-adv-x="526" 
d="M369 0v47q-29 -29 -61 -41t-81 -12q-52 0 -83.5 10t-62 41t-30.5 94q0 66 44 104t126 38h148v47q0 55 -29.5 81.5t-96.5 26.5q-49 0 -75 -12t-49 -44l-49 45q32 42 71.5 57.5t102.5 15.5q197 0 197 -164v-334h-72zM369 227h-138q-110 0 -110 -87q0 -84 113 -84q38 0 63 6
t48.5 28.5t23.5 83.5v53zM252 568q-48 0 -83 35t-35 84t34.5 83.5t83.5 34.5q48 0 83 -34t35 -84q0 -49 -34 -84t-84 -35zM252 755q-29 0 -49 -19t-20 -49q0 -29 20 -49t49 -20t49 20t20 49q0 28 -20 48t-49 20z" />
    <glyph glyph-name="ccedilla" unicode="&#xe7;" horiz-adv-x="494" 
d="M281 -6q-96 0 -157 65.5t-61 186.5q0 122 60.5 187t157.5 65q53 0 88 -15.5t74 -57.5l-49 -46q-28 31 -53 43t-60 12q-75 0 -110.5 -50.5t-35.5 -137.5q0 -47 7 -77t35.5 -70.5t103.5 -40.5q36 0 60 12t53 44l49 -47q-38 -41 -74 -57t-88 -16zM254 -216h-79l71 149h67z
" />
    <glyph glyph-name="eacute" unicode="&#xe9;" horiz-adv-x="530" 
d="M135 227q0 -81 37.5 -125.5t107.5 -44.5q42 0 70 12.5t59 43.5l49 -43q-40 -40 -79.5 -58t-100.5 -18q-101 0 -158 62.5t-57 189.5q0 119 53.5 185.5t148.5 66.5t148.5 -63.5t53.5 -174.5v-33h-332zM380 363q-14 34 -45 54t-70 20t-69.5 -20t-42 -46.5t-15 -45.5
t-3.5 -44h260q0 30 -2.5 44t-12.5 38zM285 594h-66l88 153h86z" />
    <glyph glyph-name="egrave" unicode="&#xe8;" horiz-adv-x="530" 
d="M135 227q0 -81 37.5 -125.5t107.5 -44.5q42 0 70 12.5t59 43.5l49 -43q-40 -40 -79.5 -58t-100.5 -18q-101 0 -158 62.5t-57 189.5q0 119 53.5 185.5t148.5 66.5t148.5 -63.5t53.5 -174.5v-33h-332zM380 363q-14 34 -45 54t-70 20t-69.5 -20t-42 -46.5t-15 -45.5
t-3.5 -44h260q0 30 -2.5 44t-12.5 38zM251 594l-108 153h86l88 -153h-66z" />
    <glyph glyph-name="ecircumflex" unicode="&#xea;" horiz-adv-x="530" 
d="M135 227q0 -81 37.5 -125.5t107.5 -44.5q42 0 70 12.5t59 43.5l49 -43q-40 -40 -79.5 -58t-100.5 -18q-101 0 -158 62.5t-57 189.5q0 119 53.5 185.5t148.5 66.5t148.5 -63.5t53.5 -174.5v-33h-332zM380 363q-14 34 -45 54t-70 20t-69.5 -20t-42 -46.5t-15 -45.5
t-3.5 -44h260q0 30 -2.5 44t-12.5 38zM358 594l-90 104l-90 -104h-69l125 153h68l125 -153h-69z" />
    <glyph glyph-name="edieresis" unicode="&#xeb;" horiz-adv-x="530" 
d="M135 227q0 -81 37.5 -125.5t107.5 -44.5q42 0 70 12.5t59 43.5l49 -43q-40 -40 -79.5 -58t-100.5 -18q-101 0 -158 62.5t-57 189.5q0 119 53.5 185.5t148.5 66.5t148.5 -63.5t53.5 -174.5v-33h-332zM380 363q-14 34 -45 54t-70 20t-69.5 -20t-42 -46.5t-15 -45.5
t-3.5 -44h260q0 30 -2.5 44t-12.5 38zM338 602v89h72v-89h-72zM126 602v89h72v-89h-72z" />
    <glyph glyph-name="iacute" unicode="&#xed;" horiz-adv-x="253" 
d="M90 0v492h72v-492h-72zM156 594h-66l88 153h86z" />
    <glyph glyph-name="igrave" unicode="&#xec;" horiz-adv-x="253" 
d="M90 0v492h72v-492h-72zM198 594l-108 153h86l88 -153h-66z" />
    <glyph glyph-name="icircumflex" unicode="&#xee;" horiz-adv-x="253" 
d="M90 0v492h72v-492h-72zM339 594l-90 104l-90 -104h-69l125 153h68l125 -153h-69z" />
    <glyph glyph-name="idieresis" unicode="&#xef;" horiz-adv-x="253" 
d="M90 0v492h72v-492h-72zM302 602v89h72v-89h-72zM90 602v89h72v-89h-72z" />
    <glyph glyph-name="ntilde" unicode="&#xf1;" horiz-adv-x="562" 
d="M405 0v303q0 64 -32 97.5t-89 33.5t-89.5 -33.5t-32.5 -97.5v-303h-72v492h72v-54q53 60 138 60q80 0 128.5 -48t48.5 -135v-315h-72zM347 608q-24 0 -38.5 6t-35 18t-29.5 16t-24 4t-26 -5t-33 -27l-37 36q30 30 52 40.5t43 10.5t34.5 -5t41 -22t51.5 -17q13 0 26 6
t33 26l37 -36q-30 -30 -52.5 -40.5t-42.5 -10.5z" />
    <glyph glyph-name="oacute" unicode="&#xf3;" horiz-adv-x="530" 
d="M406 50q-27 -27 -61.5 -41.5t-79.5 -14.5q-44 0 -79 14.5t-66 46t-43.5 78t-12.5 113.5q0 65 12.5 112.5t43.5 79t65.5 46t79.5 14.5q44 0 79 -14.5t66 -46t43.5 -78t12.5 -113.5q0 -65 -12.5 -112.5t-47.5 -83.5zM355 398q-36 36 -90 36q-53 0 -83 -30t-38 -69.5
t-8 -88.5q0 -54 7.5 -90.5t38 -67t83.5 -30.5q54 0 84 30t37.5 67.5t7.5 90.5q0 52 -7.5 90t-31.5 62zM282 594h-66l88 153h86z" />
    <glyph glyph-name="ograve" unicode="&#xf2;" horiz-adv-x="530" 
d="M406 50q-27 -27 -61.5 -41.5t-79.5 -14.5q-44 0 -79 14.5t-66 46t-43.5 78t-12.5 113.5q0 65 12.5 112.5t43.5 79t65.5 46t79.5 14.5q44 0 79 -14.5t66 -46t43.5 -78t12.5 -113.5q0 -65 -12.5 -112.5t-47.5 -83.5zM355 398q-36 36 -90 36q-53 0 -83 -30t-38 -69.5
t-8 -88.5q0 -54 7.5 -90.5t38 -67t83.5 -30.5q54 0 84 30t37.5 67.5t7.5 90.5q0 52 -7.5 90t-31.5 62zM238 594l-108 153h86l88 -153h-66z" />
    <glyph glyph-name="ocircumflex" unicode="&#xf4;" horiz-adv-x="530" 
d="M406 50q-27 -27 -61.5 -41.5t-79.5 -14.5q-44 0 -79 14.5t-66 46t-43.5 78t-12.5 113.5q0 65 12.5 112.5t43.5 79t65.5 46t79.5 14.5q44 0 79 -14.5t66 -46t43.5 -78t12.5 -113.5q0 -65 -12.5 -112.5t-47.5 -83.5zM355 398q-36 36 -90 36q-53 0 -83 -30t-38 -69.5
t-8 -88.5q0 -54 7.5 -90.5t38 -67t83.5 -30.5q54 0 84 30t37.5 67.5t7.5 90.5q0 52 -7.5 90t-31.5 62zM355 594l-90 104l-90 -104h-69l125 153h68l125 -153h-69z" />
    <glyph glyph-name="odieresis" unicode="&#xf6;" horiz-adv-x="530" 
d="M406 50q-27 -27 -61.5 -41.5t-79.5 -14.5q-44 0 -79 14.5t-66 46t-43.5 78t-12.5 113.5q0 65 12.5 112.5t43.5 79t65.5 46t79.5 14.5q44 0 79 -14.5t66 -46t43.5 -78t12.5 -113.5q0 -65 -12.5 -112.5t-47.5 -83.5zM355 398q-36 36 -90 36q-53 0 -83 -30t-38 -69.5
t-8 -88.5q0 -54 7.5 -90.5t38 -67t83.5 -30.5q54 0 84 30t37.5 67.5t7.5 90.5q0 52 -7.5 90t-31.5 62zM335 602v89h72v-89h-72zM123 602v89h72v-89h-72z" />
    <glyph glyph-name="otilde" unicode="&#xf5;" horiz-adv-x="530" 
d="M406 50q-27 -27 -61.5 -41.5t-79.5 -14.5q-44 0 -79 14.5t-66 46t-43.5 78t-12.5 113.5q0 65 12.5 112.5t43.5 79t65.5 46t79.5 14.5q44 0 79 -14.5t66 -46t43.5 -78t12.5 -113.5q0 -65 -12.5 -112.5t-47.5 -83.5zM355 398q-36 36 -90 36q-53 0 -83 -30t-38 -69.5
t-8 -88.5q0 -54 7.5 -90.5t38 -67t83.5 -30.5q54 0 84 30t37.5 67.5t7.5 90.5q0 52 -7.5 90t-31.5 62zM327 608q-24 0 -38.5 6t-35 18t-29.5 16t-24 4t-26 -5t-33 -27l-37 36q30 30 52 40.5t43 10.5t34.5 -5t41 -22t51.5 -17q13 0 26 6t33 26l37 -36q-30 -30 -52.5 -40.5
t-42.5 -10.5z" />
    <glyph glyph-name="uacute" unicode="&#xfa;" horiz-adv-x="563" 
d="M401 0v55q-53 -61 -139 -61q-81 0 -129 47.5t-48 136.5v314h72v-303q0 -64 31.5 -97.5t88.5 -33.5t90 34t33 97v303h72v-492h-71zM295 594h-66l88 153h86z" />
    <glyph glyph-name="ugrave" unicode="&#xf9;" horiz-adv-x="563" 
d="M401 0v55q-53 -61 -139 -61q-81 0 -129 47.5t-48 136.5v314h72v-303q0 -64 31.5 -97.5t88.5 -33.5t90 34t33 97v303h72v-492h-71zM261 594l-108 153h86l88 -153h-66z" />
    <glyph glyph-name="ucircumflex" unicode="&#xfb;" horiz-adv-x="563" 
d="M401 0v55q-53 -61 -139 -61q-81 0 -129 47.5t-48 136.5v314h72v-303q0 -64 31.5 -97.5t88.5 -33.5t90 34t33 97v303h72v-492h-71zM368 594l-90 104l-90 -104h-69l125 153h68l125 -153h-69z" />
    <glyph glyph-name="udieresis" unicode="&#xfc;" horiz-adv-x="563" 
d="M401 0v55q-53 -61 -139 -61q-81 0 -129 47.5t-48 136.5v314h72v-303q0 -64 31.5 -97.5t88.5 -33.5t90 34t33 97v303h72v-492h-71zM348 602v89h72v-89h-72zM136 602v89h72v-89h-72z" />
    <glyph glyph-name="dagger" unicode="&#x2020;" horiz-adv-x="605" 
d="M337 445v-445h-72v445h-191v64h191v203h72v-203h194v-64h-194z" />
    <glyph glyph-name="degree" unicode="&#xb0;" horiz-adv-x="463" 
d="M232 393q-68 0 -116.5 47.5t-48.5 116.5q0 68 48 116t117 48q68 0 116 -48t48 -116t-48 -116t-116 -48zM231 663q-45 0 -74 -30t-29 -76q0 -44 30 -75t74 -31q45 0 74 30t29 76q0 44 -30 75t-74 31z" />
    <glyph glyph-name="cent" unicode="&#xa2;" horiz-adv-x="498" 
d="M303 115v-115h-59v117q-84 12 -132.5 77t-48.5 172q0 106 48.5 171.5t132.5 77.5v97h59v-95q43 0 76 -17.5t69 -56.5l-49 -46q-49 55 -100 55v-372q51 0 100 55l49 -46q-68 -74 -145 -74zM248 550q-49 -9 -73.5 -42.5t-32 -64.5t-7.5 -77q0 -86 32 -130.5t81 -53.5v368z
" />
    <glyph glyph-name="sterling" unicode="&#xa3;" horiz-adv-x="548" 
d="M110 0v330h-63v54h63v112q0 102 62 162t161 60t163 -64l-52 -51q-23 23 -47 35t-64 12q-70 0 -108 -42t-38 -122v-102h146v-54h-146v-262h309v-68h-386z" />
    <glyph glyph-name="section" unicode="&#xa7;" horiz-adv-x="557" 
d="M366 90q45 -16 71 -53t26 -91q0 -77 -52.5 -124.5t-131.5 -47.5q-80 0 -134.5 42t-54.5 119h73q9 -95 116 -95q52 0 81.5 27.5t29.5 77.5q0 35 -23.5 62.5t-64.5 39.5l-78 22q-66 19 -101.5 66.5t-35.5 116.5q0 58 30 100t75 64q-46 21 -69.5 53t-23.5 85q0 72 50 118
t130 46t131 -42.5t51 -114.5h-72q0 47 -30 70t-80 23q-51 0 -79.5 -25.5t-28.5 -73.5q0 -37 22 -61t62 -35l78 -22q65 -19 101 -67t36 -116q0 -57 -30 -99.5t-74 -64.5zM365 345q-36 36 -86 36q-53 0 -86 -36t-33 -92q0 -31 8.5 -52.5t33 -48.5t77.5 -27t77 26.5t32.5 49
t8.5 52.5q0 32 -6.5 52.5t-25.5 39.5z" />
    <glyph glyph-name="bullet" unicode="&#x2022;" horiz-adv-x="532" 
d="M266 171q-68 0 -115.5 47.5t-47.5 115.5t47.5 115.5t115.5 47.5t115.5 -47.5t47.5 -115.5t-47.5 -115.5t-115.5 -47.5z" />
    <glyph glyph-name="paragraph" unicode="&#xb6;" horiz-adv-x="603" 
d="M428 -220v864h-117v-864h-72v546q-86 0 -141.5 57.5t-55.5 134.5q0 83 58.5 138.5t158.5 55.5h241v-932h-72z" />
    <glyph glyph-name="germandbls" unicode="&#xdf;" horiz-adv-x="556" 
d="M445 36q-39 -36 -103 -36h-54v62h40q23 0 33.5 3.5t30.5 20t20 63.5v169q0 41 -21 62t-59 21h-44v60h36q39 0 63.5 24.5t24.5 66.5q0 46 -30.5 75t-94.5 29t-94 -36t-30 -99v-521h-73v524q0 93 54 144t147 51q85 0 139 -41.5t54 -124.5q0 -40 -15.5 -69t-47.5 -50
q35 -19 49 -45.5t14 -74.5v-173q0 -69 -39 -105z" />
    <glyph glyph-name="registered" unicode="&#xae;" horiz-adv-x="881" 
d="M440 -6q-150 0 -256 106t-106 256t106 256t256 106t256 -106t106 -256t-106 -256t-256 -106zM440 665q-127 0 -215.5 -90.5t-88.5 -218.5q0 -127 89 -218t215 -91t215.5 90.5t89.5 218.5t-89.5 218.5t-215.5 90.5zM528 158l-91 162h-60v-162h-55v397h135q52 0 88.5 -34.5
t36.5 -84.5q0 -41 -23.5 -69t-61.5 -40l95 -169h-64zM451 506h-74v-139h74q33 0 54 19t21 50q0 30 -21 50t-54 20z" />
    <glyph glyph-name="copyright" unicode="&#xa9;" horiz-adv-x="881" 
d="M440 -6q-150 0 -256 106t-106 256t106 256t256 106t256 -106t106 -256t-106 -256t-256 -106zM440 664q-126 0 -214.5 -90.5t-88.5 -217.5t88.5 -217.5t214.5 -90.5t215 90t89 218q0 126 -89 217t-215 91zM445 153q-85 0 -131.5 56t-46.5 147t46.5 147.5t131.5 56.5
q40 0 69.5 -12.5t61.5 -40.5l-36 -36q-44 39 -95 39q-64 0 -93 -42t-29 -112t28.5 -111.5t93.5 -41.5q28 0 49 8t46 30l36 -36q-58 -52 -131 -52z" />
    <glyph glyph-name="trademark" unicode="&#x2122;" horiz-adv-x="839" 
d="M724 285v308l-102 -202h-56l-102 202v-308h-58v427h58l130 -259l130 259h57v-427h-57zM212 659v-374h-58v374h-118v53h295v-53h-119z" />
    <glyph glyph-name="acute" unicode="&#xb4;" horiz-adv-x="500" 
d="M267 594h-66l88 153h86z" />
    <glyph glyph-name="dieresis" unicode="&#xa8;" horiz-adv-x="500" 
d="M320 602v89h72v-89h-72zM108 602v89h72v-89h-72z" />
    <glyph glyph-name="notequal" unicode="&#x2260;" horiz-adv-x="537" 
d="M201 151l-103 -111l-46 40l67 71h-67v66h126l99 103h-225v67h284l104 111l45 -41l-67 -70h67v-67h-126l-98 -103h224v-66h-284z" />
    <glyph glyph-name="AE" unicode="&#xc6;" horiz-adv-x="922" 
d="M426 0v169h-247l-88 -169h-83l376 712h483v-68h-366v-253h312v-68h-312v-255h366v-68h-441zM426 644l-214 -409h214v409z" />
    <glyph glyph-name="Oslash" unicode="&#xd8;" horiz-adv-x="652" 
d="M507 68q-74 -74 -182 -74q-70 0 -126 32l-33 -70h-65l50 104l-8 8q-46 46 -56.5 103t-10.5 185q0 106 6 169.5t70.5 128t172.5 64.5q70 0 125 -31l34 69h65l-50 -104l8 -8q46 -46 56.5 -103t10.5 -185q0 -106 -6 -169.5t-61 -118.5zM463 581l-234 -490q45 -29 96 -29
q74 0 114.5 42t49 88.5t8.5 163.5q0 106 -5.5 150t-28.5 75zM325 650q-74 0 -115 -42.5t-49.5 -88t-8.5 -163.5q0 -178 35 -225l234 490q-45 29 -96 29z" />
    <glyph glyph-name="infinity" unicode="&#x221e;" horiz-adv-x="808" 
d="M582 108q-51 0 -92 24.5t-86 79.5q-44 -54 -86 -79.5t-91 -25.5q-71 0 -115.5 45.5t-44.5 114.5t44.5 114.5t115.5 45.5q90 0 177 -106q46 56 86.5 81t91.5 25q71 0 114.5 -45.5t43.5 -114.5q0 -68 -43.5 -113.5t-114.5 -45.5zM579 359q-34 0 -61.5 -21.5t-68.5 -71.5
q38 -47 67.5 -70t62.5 -23q41 0 66.5 25.5t25.5 67.5t-25.5 67.5t-66.5 25.5zM229 360q-41 0 -67 -26t-26 -68q0 -41 26 -67t67 -26q34 0 61 22t68 71q-30 36 -59.5 65t-69.5 29z" />
    <glyph glyph-name="plusminus" unicode="&#xb1;" 
d="M295 289v-177h-67v177h-176v67h176v175h67v-175h175v-67h-175zM52 0v67h418v-67h-418z" />
    <glyph glyph-name="lessequal" unicode="&#x2264;" horiz-adv-x="1027" 
d="M813 -80l-557 558v-516l-67 67v564h565l66 -67l-515 1l557 -558z" />
    <glyph glyph-name="greaterequal" unicode="&#x2265;" horiz-adv-x="1027" 
d="M771 -38v516l-557 -558l-49 49l557 558l-515 -1l66 67h565v-564z" />
    <glyph glyph-name="yen" unicode="&#xa5;" horiz-adv-x="514" 
d="M349 401h100v-54h-127l-26 -53v-52h153v-55h-153v-187h-77v187h-154v55h154v52l-26 53h-128v54h100l-157 311h82l168 -341l167 341h81z" />
    <glyph glyph-name="mu" unicode="&#xb5;" horiz-adv-x="561" 
d="M399 0v55q-53 -61 -138 -61q-66 0 -106 37v-251h-72v712h72v-303q0 -64 32 -97.5t89 -33.5t90 34t33 97v303h72v-492h-72z" />
    <glyph glyph-name="partialdiff" unicode="&#x2202;" horiz-adv-x="544" 
d="M396 49q-24 -26 -59 -40.5t-77 -14.5q-85 0 -127 44.5t-54.5 93.5t-12.5 112q0 70 11.5 116.5t39.5 75.5t61.5 44t74.5 15q40 0 70 -12t58 -46v70q0 65 -33 107t-102 42q-40 0 -63.5 -11.5t-54.5 -38.5l-46 46q39 35 76.5 50.5t89.5 15.5q99 0 152 -58.5t53 -157.5v-258
q0 -66 -11.5 -113t-45.5 -82zM344 395q-34 36 -84 36q-51 0 -79.5 -30t-35.5 -68t-7 -89q0 -66 9 -98t35.5 -60t77.5 -28q50 0 78.5 30t35.5 67.5t7 88.5q0 67 -9 99t-28 52z" />
    <glyph glyph-name="summation" unicode="&#x3a3;" horiz-adv-x="551" 
d="M57 -220v65l202 438l-201 413v64h441v-68h-353l180 -375v-69l-182 -400h356v-68h-443z" />
    <glyph glyph-name="product" unicode="&#x220f;" horiz-adv-x="696" 
d="M517 -220v912h-338v-912h-76v980h490v-980h-76z" />
    <glyph glyph-name="pi" unicode="&#x3c0;" horiz-adv-x="591" 
d="M421 0v427h-250v-427h-70v492h389v-492h-69z" />
    <glyph glyph-name="integral" unicode="&#x222b;" horiz-adv-x="372" 
d="M296 653q-37 0 -55 -19.5t-18 -57.5v-654q0 -65 -35.5 -102.5t-100.5 -37.5h-50v62h39q37 0 55 19.5t18 57.5v654q0 65 35.5 102.5t100.5 37.5h49v-62h-38z" />
    <glyph glyph-name="ordfeminine" unicode="&#xaa;" horiz-adv-x="449" 
d="M307 319v36q-42 -41 -111 -41q-42 0 -66 8t-49 34t-25 73q0 52 35 83t100 31h115v36q0 44 -22 64t-75 20q-38 0 -59 -9.5t-39 -34.5l-41 37q26 33 58 46.5t82 13.5q155 0 155 -132v-265h-58zM306 498h-107q-84 0 -84 -67q0 -65 86 -65q33 0 50.5 4t36 21.5t18.5 66.5v40z
" />
    <glyph glyph-name="ordmasculine" unicode="&#xba;" horiz-adv-x="455" 
d="M339 359q-21 -21 -49 -32.5t-63 -11.5t-63 11.5t-52.5 36.5t-34.5 62.5t-10 89.5q0 51 10 89.5t35 63.5t52 36.5t63 11.5q35 0 62.5 -11.5t52.5 -36.5t35 -63.5t10 -89.5t-10 -89.5t-38 -66.5zM297 634q-28 28 -70 28t-65 -23t-29 -54t-6 -70q0 -43 5.5 -71t29.5 -52
t65 -24q21 0 38 7t34 24t23 46t6 70q0 40 -6 70t-25 49z" />
    <glyph glyph-name="Omega" unicode="&#x3a9;" horiz-adv-x="650" 
d="M379 0v64q32 15 54 32.5t37.5 43t21 76.5t5.5 138q0 117 -8.5 165t-50 89.5t-113.5 41.5q-35 0 -66.5 -13t-59.5 -41.5t-37.5 -78t-9.5 -163.5q0 -171 22 -206t42 -51t55 -33v-64h-195v67h82q-19 15 -32.5 32.5t-26.5 42.5t-18 70t-5 114v30q0 106 6 169.5t70.5 128
t172.5 64.5t168 -60t70.5 -117t10.5 -185v-30q0 -67 -5 -112.5t-22.5 -80.5t-55.5 -66h83v-67h-195z" />
    <glyph glyph-name="ae" unicode="&#xe6;" horiz-adv-x="835" 
d="M440 227q0 -81 37.5 -125.5t108.5 -44.5q42 0 69 12t59 44l50 -43q-40 -40 -80 -58t-102 -18q-61 0 -104.5 20.5t-70.5 64.5q-33 -46 -74.5 -65.5t-105.5 -19.5q-52 0 -83.5 10t-62 41t-30.5 94q0 66 44 104t126 38h148v47q0 55 -29.5 81.5t-96.5 26.5q-49 0 -75 -12
t-49 -44l-49 45q32 42 71.5 57.5t102.5 15.5q132 0 173 -77q52 77 154 77q95 0 148.5 -63.5t53.5 -174.5v-33h-333zM686 363q-14 34 -45 54t-70 20t-69.5 -20t-42.5 -48t-15.5 -44t-3.5 -44h261q0 30 -2.5 44t-12.5 38zM369 227h-138q-110 0 -110 -87q0 -84 113 -84
q38 0 63 6t48.5 28.5t23.5 83.5v53z" />
    <glyph glyph-name="oslash" unicode="&#xf8;" horiz-adv-x="530" 
d="M406 50q-27 -27 -61.5 -41.5t-79.5 -14.5q-31 0 -56.5 7t-48.5 20l-38 -65h-57l57 96q-34 35 -46 82t-12 112t12.5 112.5t43.5 79t65.5 46t79.5 14.5q31 0 56.5 -7t48.5 -20l39 65h56l-57 -96q34 -35 46 -82t12 -112t-12.5 -112.5t-47.5 -83.5zM370 379l-177 -299
q31 -22 72 -22q54 0 84 30t37.5 67.5t7.5 90.5q0 48 -4 77.5t-20 55.5zM265 434q-53 0 -83 -30t-38 -69.5t-8 -88.5q0 -44 5 -76t20 -57l176 300q-30 21 -72 21z" />
    <glyph glyph-name="questiondown" unicode="&#xbf;" horiz-adv-x="497" 
d="M185 408v84h85v-84h-85zM234 -226q-79 0 -133.5 51.5t-54.5 131.5q0 32 11.5 59t34.5 61l82 118q8 12 13 29t5 29v40h72v-41q0 -28 -7.5 -49t-24.5 -45l-81 -116q-18 -27 -25.5 -43.5t-7.5 -41.5q0 -50 33 -84t83 -34q52 0 83.5 34.5t31.5 83.5h72q0 -77 -53 -130
t-134 -53z" />
    <glyph glyph-name="exclamdown" unicode="&#xa1;" horiz-adv-x="316" 
d="M99 408v84h86v-84h-86zM101 -220l10 512h62l11 -512h-83z" />
    <glyph glyph-name="logicalnot" unicode="&#xac;" 
d="M404 103v137h-353v67h420v-204h-67z" />
    <glyph glyph-name="radical" unicode="&#x221a;" horiz-adv-x="562" 
d="M443 644l-211 -644h-61l-163 492h79l115 -356l184 576h146v-68h-89z" />
    <glyph glyph-name="florin" unicode="&#x192;" horiz-adv-x="403" 
d="M323 652q-66 0 -79 -72l-34 -196h105v-54h-115l-97 -550h-72l97 550h-98v54h108l34 198q10 57 49.5 94.5t99.5 37.5h52v-62h-50z" />
    <glyph glyph-name="approxequal" unicode="&#x2248;" horiz-adv-x="539" 
d="M361 298q-25 0 -43.5 6.5t-52 21.5t-52 21t-36.5 6q-23 0 -39 -7.5t-45 -36.5l-44 44q41 41 68 55t61 14q24 0 43 -6.5t52 -21.5t51.5 -21t36.5 -6q23 0 39 7.5t45 36.5l45 -45q-42 -42 -68 -55t-61 -13zM361 121q-31 0 -50.5 7.5t-54.5 23.5t-48.5 20t-29.5 4
q-24 0 -39 -7.5t-45 -37.5l-45 45q42 42 68 55t61 13q31 0 50.5 -7.5t54.5 -23.5t48.5 -20t29.5 -4q24 0 39 7.5t45 37.5l45 -45q-42 -42 -68 -55t-61 -13z" />
    <glyph glyph-name="Delta" unicode="&#x2206;" horiz-adv-x="603" 
d="M8 0l262 712h63l261 -712h-586zM302 603l-194 -537h387z" />
    <glyph glyph-name="guillemotleft" unicode="&#xab;" horiz-adv-x="554" 
d="M266 268l210 210v-90l-121 -120l121 -121v-89zM40 268l210 210v-90l-120 -120l120 -121v-89z" />
    <glyph glyph-name="guillemotright" unicode="&#xbb;" horiz-adv-x="554" 
d="M304 58v89l120 121l-120 120v90l210 -210zM78 58v89l121 121l-121 120v90l210 -210z" />
    <glyph glyph-name="ellipsis" unicode="&#x2026;" horiz-adv-x="757" 
d="M577 0v92h92v-92h-92zM332 0v92h92v-92h-92zM88 0v92h92v-92h-92z" />
    <glyph glyph-name="nonbreakingspace" unicode="&#xa0;" horiz-adv-x="249" 
 />
    <glyph glyph-name="Agrave" unicode="&#xc0;" horiz-adv-x="611" 
d="M518 0l-57 161h-311l-57 -161h-81l262 712h64l261 -712h-81zM307 603l-134 -376h266zM285 781l-108 153h86l88 -153h-66z" />
    <glyph glyph-name="Atilde" unicode="&#xc3;" horiz-adv-x="611" 
d="M518 0l-57 161h-311l-57 -161h-81l262 712h64l261 -712h-81zM307 603l-134 -376h266zM364 795q-24 0 -38.5 6t-35 18t-29.5 16t-24 4t-26 -5t-33 -27l-37 36q30 30 52 40.5t43 10.5t34.5 -5t41 -22t51.5 -17q13 0 26 6t33 26l37 -36q-30 -30 -52.5 -40.5t-42.5 -10.5z
" />
    <glyph glyph-name="Otilde" unicode="&#xd5;" horiz-adv-x="650" 
d="M507 68q-74 -74 -182 -74t-168 60t-70.5 117t-10.5 185q0 106 6 169.5t70.5 128t172.5 64.5t168 -60t70.5 -117t10.5 -185q0 -106 -6 -169.5t-61 -118.5zM448 599q-49 51 -123 51t-115 -42.5t-49.5 -88t-8.5 -163.5q0 -117 8.5 -163.5t49.5 -88.5t115 -42t115 42.5
t49.5 88t8.5 163.5q0 117 -8.5 163.5t-41.5 79.5zM387 795q-24 0 -38.5 6t-35 18t-29.5 16t-24 4t-26 -5t-33 -27l-37 36q30 30 52 40.5t43 10.5t34.5 -5t41 -22t51.5 -17q13 0 26 6t33 26l37 -36q-30 -30 -52.5 -40.5t-42.5 -10.5z" />
    <glyph glyph-name="OE" unicode="&#x152;" horiz-adv-x="989" 
d="M497 0v74q-32 -39 -77.5 -59.5t-95.5 -20.5q-107 0 -166.5 59.5t-70.5 116.5t-11 186q0 108 6 170.5t70.5 127t171.5 64.5q108 0 173 -80v74h434v-67h-358l1 -254h304v-64h-304l-1 -260h360v-67h-436zM448 599q-49 51 -123 51t-115 -42.5t-49.5 -88t-8.5 -163.5
q0 -117 8.5 -163.5t49.5 -88.5t115 -42t114.5 42t49 88.5t8.5 163.5q0 121 -8 165t-41 78z" />
    <glyph glyph-name="oe" unicode="&#x153;" horiz-adv-x="861" 
d="M466 227q0 -81 37.5 -125.5t107.5 -44.5q42 0 70 12.5t59 43.5l49 -43q-40 -40 -79.5 -58t-100.5 -18q-124 0 -177 95q-23 -45 -67 -70t-100 -25q-44 0 -79 14.5t-66 46t-43.5 78t-12.5 113.5q0 65 12.5 112.5t43.5 79t65.5 46t79.5 14.5q55 0 100 -25t68 -70
q51 95 163 95q95 0 148.5 -63.5t53.5 -174.5v-33h-332zM711 363q-14 34 -45 54t-70 20t-69.5 -20t-42 -46.5t-15 -45.5t-3.5 -44h261q0 31 -2.5 42.5t-13.5 39.5zM355 398q-36 36 -90 36q-53 0 -83 -30t-38 -69.5t-8 -88.5q0 -54 7.5 -90.5t38 -67t83.5 -30.5q54 0 84 30
t37.5 67.5t7.5 90.5q0 52 -7.5 90t-31.5 62z" />
    <glyph glyph-name="endash" unicode="&#x2013;" 
d="M52 236v67h418v-67h-418z" />
    <glyph glyph-name="emdash" unicode="&#x2014;" horiz-adv-x="914" 
d="M76 236v68h762v-68h-762z" />
    <glyph glyph-name="quotedblleft" unicode="&#x201c;" horiz-adv-x="434" 
d="M258 628v84l88 79v-163h-88zM88 628v84l87 79v-163h-87z" />
    <glyph glyph-name="quotedblright" unicode="&#x201d;" horiz-adv-x="434" 
d="M258 549v163h88v-84zM88 549v163h87v-84z" />
    <glyph glyph-name="quoteleft" unicode="&#x2018;" horiz-adv-x="263" 
d="M88 628v84l87 79v-163h-87z" />
    <glyph glyph-name="quoteright" unicode="&#x2019;" horiz-adv-x="263" 
d="M88 549v163h87v-84z" />
    <glyph glyph-name="divide" unicode="&#xf7;" 
d="M218 404v86h86v-86h-86zM51 236v67h420v-67h-420zM218 49v86h86v-86h-86z" />
    <glyph glyph-name="lozenge" unicode="&#x25ca;" horiz-adv-x="649" 
d="M325 -12l-258 364l258 364l257 -364zM325 605l-177 -253l177 -255l176 255z" />
    <glyph glyph-name="ydieresis" unicode="&#xff;" horiz-adv-x="446" 
d="M212 -119q-14 -39 -33.5 -57.5t-45 -26.5t-52.5 -8h-31v64h22q37 0 52.5 12.5t28.5 48.5l35 96l-177 482h78l135 -395l134 395h78zM293 602v89h72v-89h-72zM81 602v89h72v-89h-72z" />
    <glyph glyph-name="Ydieresis" unicode="&#x178;" horiz-adv-x="515" 
d="M296 294v-294h-76v294l-212 418h82l168 -341l166 341h82zM327 789v89h72v-89h-72zM115 789v89h72v-89h-72z" />
    <glyph glyph-name="fraction" unicode="&#x2215;" horiz-adv-x="185" 
d="M-44 0h-60l333 712h60z" />
    <glyph glyph-name="currency" unicode="&#xa4;" horiz-adv-x="660" 
d="M536 19l-75 74q-28 -21 -61 -32.5t-70 -11.5q-36 0 -70.5 12t-61.5 32l-74 -74l-46 46l74 74q-21 28 -32.5 61.5t-11.5 70.5q0 36 12 70.5t32 61.5l-74 73l46 46l74 -73q57 43 132 43q74 0 131 -43l75 73l46 -46l-74 -73q21 -28 32.5 -61.5t11.5 -70.5q0 -36 -12 -70.5
t-32 -61.5l74 -74zM330 426q-64 0 -110 -45t-46 -110t45.5 -110.5t110.5 -45.5t110 45t45 111q0 65 -45 110t-110 45z" />
    <glyph glyph-name="guilsinglleft" unicode="&#x2039;" horiz-adv-x="328" 
d="M40 268l210 210v-90l-120 -120l120 -121v-89z" />
    <glyph glyph-name="guilsinglright" unicode="&#x203a;" horiz-adv-x="328" 
d="M78 58v89l121 121l-121 120v90l210 -210z" />
    <glyph glyph-name="fi" unicode="&#xf001;" horiz-adv-x="562" 
d="M394 639v74h82v-74h-82zM399 0v489h72v-489h-72zM177 434v-434h-72v434h-63v55h63v93q0 57 32.5 94.5t92.5 37.5h52v-62h-39q-66 0 -66 -72v-91h105v-55h-105z" />
    <glyph glyph-name="fl" unicode="&#xf002;" horiz-adv-x="602" 
d="M521 0q-62 0 -94 36t-32 95v581h72v-578q0 -37 14.5 -54.5t51.5 -17.5h40v-62h-52zM177 434v-434h-72v434h-63v55h63v93q0 57 32.5 94.5t92.5 37.5h52v-62h-39q-66 0 -66 -72v-91h105v-55h-105z" />
    <glyph glyph-name="daggerdbl" unicode="&#x2021;" horiz-adv-x="605" 
d="M337 -16v-204h-72v204h-191v64h191v397h-191v64h191v203h72v-203h194v-64h-194v-397h194v-64h-194z" />
    <glyph glyph-name="periodcentered" unicode="&#x2219;" horiz-adv-x="270" 
d="M88 223v94h94v-94h-94z" />
    <glyph glyph-name="quotesinglbase" unicode="&#x201a;" horiz-adv-x="263" 
d="M88 -79v163h87v-84z" />
    <glyph glyph-name="quotedblbase" unicode="&#x201e;" horiz-adv-x="434" 
d="M258 -79v163h88v-84zM88 -79v163h87v-84z" />
    <glyph glyph-name="perthousand" unicode="&#x2030;" horiz-adv-x="1179" 
d="M980 -7q-60 0 -97.5 36.5t-37.5 98.5v105q0 61 38 98t97 37t97 -37t38 -98v-105q0 -61 -38 -98t-97 -37zM634 -7q-60 0 -97.5 36.5t-37.5 98.5v105q0 61 38 98t97 37t97 -37t38 -98v-105q0 -61 -38 -98t-97 -37zM280 0h-60l334 712h60zM200 345q-60 0 -97.5 36.5
t-37.5 97.5v105q0 61 38 98t97 37t97 -37t38 -98v-105q0 -60 -38 -97t-97 -37zM1058 231q0 41 -19 64t-59 23t-59 -23t-19 -64v-101q0 -42 18.5 -64.5t59.5 -22.5q40 0 59 22.5t19 64.5v101zM712 231q0 41 -19 64t-59 23t-59 -23t-19 -64v-101q0 -42 18.5 -64.5t59.5 -22.5
q40 0 59 22.5t19 64.5v101zM278 582q0 41 -19 64t-59 23t-59 -23t-19 -64v-101q0 -42 19 -64t59 -22q39 0 58.5 22.5t19.5 63.5v101z" />
    <glyph glyph-name="Acircumflex" unicode="&#xc2;" horiz-adv-x="611" 
d="M518 0l-57 161h-311l-57 -161h-81l262 712h64l261 -712h-81zM307 603l-134 -376h266zM392 781l-90 104l-90 -104h-69l125 153h68l125 -153h-69z" />
    <glyph glyph-name="Ecircumflex" unicode="&#xca;" horiz-adv-x="600" 
d="M103 0v712h442v-68h-366v-251h312v-68h-312v-257h366v-68h-442zM403 781l-90 104l-90 -104h-69l125 153h68l125 -153h-69z" />
    <glyph glyph-name="Aacute" unicode="&#xc1;" horiz-adv-x="611" 
d="M518 0l-57 161h-311l-57 -161h-81l262 712h64l261 -712h-81zM307 603l-134 -376h266zM319 781h-66l88 153h86z" />
    <glyph glyph-name="Edieresis" unicode="&#xcb;" horiz-adv-x="600" 
d="M103 0v712h442v-68h-366v-251h312v-68h-312v-257h366v-68h-442zM383 789v89h72v-89h-72zM171 789v89h72v-89h-72z" />
    <glyph glyph-name="Egrave" unicode="&#xc8;" horiz-adv-x="600" 
d="M103 0v712h442v-68h-366v-251h312v-68h-312v-257h366v-68h-442zM296 781l-108 153h86l88 -153h-66z" />
    <glyph glyph-name="Iacute" unicode="&#xcd;" horiz-adv-x="282" 
d="M103 0v712h76v-712h-76zM169 781h-66l88 153h86z" />
    <glyph glyph-name="Icircumflex" unicode="&#xce;" horiz-adv-x="282" 
d="M103 0v712h76v-712h-76zM352 781l-90 104l-90 -104h-69l125 153h68l125 -153h-69z" />
    <glyph glyph-name="Idieresis" unicode="&#xcf;" horiz-adv-x="282" 
d="M103 0v712h76v-712h-76zM315 789v89h72v-89h-72zM103 789v89h72v-89h-72z" />
    <glyph glyph-name="Igrave" unicode="&#xcc;" horiz-adv-x="282" 
d="M103 0v712h76v-712h-76zM211 781l-108 153h86l88 -153h-66z" />
    <glyph glyph-name="Oacute" unicode="&#xd3;" horiz-adv-x="650" 
d="M507 68q-74 -74 -182 -74t-168 60t-70.5 117t-10.5 185q0 106 6 169.5t70.5 128t172.5 64.5t168 -60t70.5 -117t10.5 -185q0 -106 -6 -169.5t-61 -118.5zM448 599q-49 51 -123 51t-115 -42.5t-49.5 -88t-8.5 -163.5q0 -117 8.5 -163.5t49.5 -88.5t115 -42t115 42.5
t49.5 88t8.5 163.5q0 117 -8.5 163.5t-41.5 79.5zM342 781h-66l88 153h86z" />
    <glyph glyph-name="Ocircumflex" unicode="&#xd4;" horiz-adv-x="650" 
d="M507 68q-74 -74 -182 -74t-168 60t-70.5 117t-10.5 185q0 106 6 169.5t70.5 128t172.5 64.5t168 -60t70.5 -117t10.5 -185q0 -106 -6 -169.5t-61 -118.5zM448 599q-49 51 -123 51t-115 -42.5t-49.5 -88t-8.5 -163.5q0 -117 8.5 -163.5t49.5 -88.5t115 -42t115 42.5
t49.5 88t8.5 163.5q0 117 -8.5 163.5t-41.5 79.5zM415 781l-90 104l-90 -104h-69l125 153h68l125 -153h-69z" />
    <glyph glyph-name="Ograve" unicode="&#xd2;" horiz-adv-x="650" 
d="M507 68q-74 -74 -182 -74t-168 60t-70.5 117t-10.5 185q0 106 6 169.5t70.5 128t172.5 64.5t168 -60t70.5 -117t10.5 -185q0 -106 -6 -169.5t-61 -118.5zM448 599q-49 51 -123 51t-115 -42.5t-49.5 -88t-8.5 -163.5q0 -117 8.5 -163.5t49.5 -88.5t115 -42t115 42.5
t49.5 88t8.5 163.5q0 117 -8.5 163.5t-41.5 79.5zM308 781l-108 153h86l88 -153h-66z" />
    <glyph glyph-name="Uacute" unicode="&#xda;" horiz-adv-x="682" 
d="M341 -6q-109 0 -178.5 67.5t-69.5 173.5v477h76v-471q0 -81 47 -130t125 -49q77 0 125 49t48 130v471h76v-477q0 -107 -70 -174t-179 -67zM358 781h-66l88 153h86z" />
    <glyph glyph-name="Ucircumflex" unicode="&#xdb;" horiz-adv-x="682" 
d="M341 -6q-109 0 -178.5 67.5t-69.5 173.5v477h76v-471q0 -81 47 -130t125 -49q77 0 125 49t48 130v471h76v-477q0 -107 -70 -174t-179 -67zM431 781l-90 104l-90 -104h-69l125 153h68l125 -153h-69z" />
    <glyph glyph-name="Ugrave" unicode="&#xd9;" horiz-adv-x="682" 
d="M341 -6q-109 0 -178.5 67.5t-69.5 173.5v477h76v-471q0 -81 47 -130t125 -49q77 0 125 49t48 130v471h76v-477q0 -107 -70 -174t-179 -67zM324 781l-108 153h86l88 -153h-66z" />
    <glyph glyph-name="dotlessi" unicode="&#x131;" horiz-adv-x="253" 
d="M90 0v492h72v-492h-72z" />
    <glyph glyph-name="circumflex" unicode="&#x302;" horiz-adv-x="500" 
d="M340 594l-90 104l-90 -104h-69l125 153h68l125 -153h-69z" />
    <glyph glyph-name="tilde" unicode="&#x303;" horiz-adv-x="500" 
d="M312 608q-24 0 -38.5 6t-35 18t-29.5 16t-24 4t-26 -5t-33 -27l-37 36q30 30 52 40.5t43 10.5t34.5 -5t41 -22t51.5 -17q13 0 26 6t33 26l37 -36q-30 -30 -52.5 -40.5t-42.5 -10.5z" />
    <glyph glyph-name="macron" unicode="&#x2c9;" horiz-adv-x="500" 
d="M99 614v57h302v-57h-302z" />
    <glyph glyph-name="breve" unicode="&#x2d8;" horiz-adv-x="500" 
d="M252 588q-155 0 -167 139h58q5 -38 34 -60t75 -22t74.5 21.5t33.5 60.5h55q-12 -139 -163 -139z" />
    <glyph glyph-name="dotaccent" unicode="&#x2d9;" horiz-adv-x="500" 
d="M210 634v74h80v-74h-80z" />
    <glyph glyph-name="ring" unicode="&#x2da;" horiz-adv-x="500" 
d="M250 568q-48 0 -83 35t-35 84t34.5 83.5t83.5 34.5q48 0 83 -34t35 -84q0 -49 -34 -84t-84 -35zM250 755q-29 0 -49 -19t-20 -49q0 -29 20 -49t49 -20t49 20t20 49q0 28 -20 48t-49 20z" />
    <glyph glyph-name="cedilla" unicode="&#xb8;" horiz-adv-x="500" 
d="M254 -216h-79l71 149h67z" />
    <glyph glyph-name="hungarumlaut" unicode="&#x2ba;" horiz-adv-x="500" 
d="M338 594h-65l89 153h85zM176 594h-66l89 153h85z" />
    <glyph glyph-name="ogonek" unicode="&#x2db;" horiz-adv-x="500" 
d="M245 -216l-59 149h66l71 -149h-78z" />
    <glyph glyph-name="caron" unicode="&#x2c7;" horiz-adv-x="500" 
d="M284 594h-68l-125 153h69l90 -105l90 105h69z" />
    <glyph glyph-name="Lslash" horiz-adv-x="582" 
d="M112 0v289l-73 -46v67l73 46v356h77v-308l154 98v-66l-154 -98v-270h363v-68h-440z" />
    <glyph glyph-name="lslash" horiz-adv-x="315" 
d="M226 0q-62 0 -94 36t-32 95v211l-63 -39v62l63 39v308h72v-264l81 50v-62l-81 -50v-252q0 -37 14.5 -54.5t51.5 -17.5h40v-62h-52z" />
    <glyph glyph-name="Scaron" horiz-adv-x="588" 
d="M286 -6q-82 0 -137 21t-107 73l52 52q43 -43 87.5 -60.5t106.5 -17.5q78 0 123 35t45 97q0 59 -25 81t-44.5 29t-57.5 13l-83 13q-85 14 -135 58t-50 129q0 91 61.5 146t166.5 55q68 0 116.5 -18t95.5 -60l-49 -49q-33 30 -72.5 45.5t-93.5 15.5q-71 0 -110.5 -35.5
t-39.5 -96.5q0 -54 24 -74.5t50 -31t54 -15.5l78 -12q49 -7 78 -18.5t70.5 -47t41.5 -125.5q0 -93 -66.5 -147.5t-179.5 -54.5zM323 781h-68l-125 153h69l90 -105l90 105h69z" />
    <glyph glyph-name="scaron" horiz-adv-x="496" 
d="M245 -6q-64 0 -113 16.5t-89 54.5l48 48q28 -30 66 -43.5t87 -13.5q63 0 97 21.5t34 65.5q0 65 -82 72l-81 7q-71 0 -109 35t-38 97q0 67 50 105.5t131 38.5q112 0 177 -53l-47 -47q-51 39 -131 39q-54 0 -82 -21t-28 -60q0 -34 20 -53t66 -19l79 -7q70 -6 107.5 -36.5
t37.5 -96.5q0 -71 -54 -110.5t-146 -39.5zM280 594h-68l-125 153h69l90 -105l90 105h69z" />
    <glyph glyph-name="Zcaron" horiz-adv-x="556" 
d="M57 0v72l356 572h-342v68h428v-64l-359 -580h359v-68h-442zM318 781h-68l-125 153h69l90 -105l90 105h69z" />
    <glyph glyph-name="zcaron" horiz-adv-x="459" 
d="M50 0v62l274 366h-259v64h342v-61l-275 -367h275v-64h-357zM270 594h-68l-125 153h69l90 -105l90 105h69z" />
    <glyph glyph-name="brokenbar" horiz-adv-x="335" 
d="M127 436v350h72v-350h-72zM127 -74v350h72v-350h-72z" />
    <glyph glyph-name="Eth" horiz-adv-x="687" 
d="M567 105q-35 -49 -87.5 -77t-123.5 -28h-239v330h-78v59h78v323h245q135 0 185 -76t57 -119.5t7 -160.5q0 -125 -7 -167t-37 -84zM499 573q-28 38 -64 55t-87 17h-154v-256h161v-59h-161v-263h154q106 0 141.5 52.5t40.5 90t5 142.5q0 87 -3 133.5t-33 87.5z" />
    <glyph glyph-name="glyph233" horiz-adv-x="530" 
d="M405 49q-25 -26 -61 -40.5t-79 -14.5q-87 0 -130.5 44.5t-56 93t-12.5 112.5q0 68 11.5 113.5t41.5 76t60 44t68 13.5q41 0 50 -1.5t25 -8.5l-58 99h-116v52h88l-47 82h75l47 -82h82v-52h-54l63 -111q38 -66 50.5 -112.5t12.5 -112.5q0 -65 -12.5 -112.5t-47.5 -82.5z
M354 395q-36 36 -89 36q-52 0 -79 -27t-37.5 -60t-10.5 -100q0 -69 9.5 -99.5t37.5 -58.5t80 -28q53 0 80.5 27.5t37.5 59.5t10 99q0 51 -7.5 89t-31.5 62z" />
    <glyph glyph-name="Yacute" horiz-adv-x="515" 
d="M296 294v-294h-76v294l-212 418h82l168 -341l166 341h82zM274 781h-66l88 153h86z" />
    <glyph glyph-name="yacute" horiz-adv-x="446" 
d="M212 -119q-14 -39 -33.5 -57.5t-45 -26.5t-52.5 -8h-31v64h22q37 0 52.5 12.5t28.5 48.5l35 96l-177 482h78l135 -395l134 395h78zM240 594h-66l88 153h86z" />
    <glyph glyph-name="Thorn" horiz-adv-x="642" 
d="M368 150h-189v-150h-76v712h76v-143h189q98 0 159 -57t61 -153q0 -95 -61 -152t-159 -57zM361 500h-182v-282h182q69 0 110 36t41 105t-41 105t-110 36z" />
    <glyph glyph-name="thorn" horiz-adv-x="546" 
d="M421 37q-19 -19 -51.5 -31t-68.5 -12q-46 0 -77.5 13t-61.5 51v-278h-72v932h72v-277q28 35 62 49t77 14q77 0 116 -39t51.5 -91t12.5 -122q0 -69 -12.5 -121.5t-47.5 -87.5zM286 434q-73 0 -98.5 -51t-25.5 -137q0 -88 25 -138t99 -50q72 0 97.5 51t25.5 137
q0 88 -25 138t-98 50z" />
    <glyph glyph-name="minus" 
d="M52 236v67h418v-67h-418z" />
    <glyph glyph-name="multiply" 
d="M412 74l-151 151l-151 -151l-45 45l151 151l-151 151l45 45l151 -152l151 152l45 -45l-152 -151l152 -151z" />
    <glyph glyph-name="onesuperior" horiz-adv-x="261" 
d="M126 285v363l-83 -73v66l83 71h57v-427h-57z" />
    <glyph glyph-name="twosuperior" horiz-adv-x="342" 
d="M48 285v52l165 202q23 29 23 58q0 30 -17.5 48.5t-47.5 18.5q-28 0 -46.5 -16.5t-18.5 -50.5h-58q0 53 34 86t89 33q54 0 88.5 -32.5t34.5 -86.5q0 -44 -39 -92l-138 -168h177v-52h-246z" />
    <glyph glyph-name="threesuperior" horiz-adv-x="356" 
d="M179 280q-56 0 -93.5 30t-37.5 89h58q0 -34 21 -50.5t52 -16.5t51.5 19.5t20.5 53.5q0 73 -75 73h-9v50h9q34 0 51 18t17 50q0 33 -18.5 50.5t-47.5 17.5t-48 -17t-19 -46h-57q0 52 36 83.5t88 31.5q53 0 88 -33t35 -86q0 -67 -54 -92q30 -13 45.5 -37t15.5 -63
q0 -59 -37 -92t-92 -33z" />
    <glyph glyph-name="onehalf" horiz-adv-x="790" 
d="M496 0v52l165 202q23 29 23 58q0 30 -17.5 48.5t-47.5 18.5q-28 0 -46.5 -16.5t-18.5 -50.5h-58q0 53 34 86t89 33q54 0 88.5 -32.5t34.5 -86.5q0 -44 -39 -92l-137 -168h176v-52h-246zM221 0h-60l333 712h60zM126 285v363l-83 -73v66l83 71h57v-427h-57z" />
    <glyph glyph-name="onequarter" horiz-adv-x="777" 
d="M690 64v-64h-56v64h-172v53l151 310h62l-150 -310h109v105h56v-105h47v-53h-47zM233 0h-60l333 712h60zM126 285v363l-83 -73v66l83 71h57v-427h-57z" />
    <glyph glyph-name="threequarters" horiz-adv-x="822" 
d="M735 64v-64h-56v64h-172v53l151 310h62l-151 -310h110v105h56v-105h47v-53h-47zM285 0h-60l334 712h60zM179 280q-56 0 -93.5 30t-37.5 89h58q0 -34 21 -50.5t52 -16.5t51.5 19.5t20.5 53.5q0 73 -75 73h-9v50h9q34 0 51 18t17 50q0 33 -18.5 50.5t-47.5 17.5t-48 -17
t-19 -46h-57q0 52 36 83.5t88 31.5q53 0 88 -33t35 -86q0 -67 -54 -92q30 -13 45.5 -37t15.5 -63q0 -59 -37 -92t-92 -33z" />
  </font>
</defs>
</svg>
